# xmcd CD database file
#
# Track frame offsets:
#	150
#	39475
#	75744
#	106676
#	123498
#	143049
#	169373
#
# Disc length: 2473 seconds
#
# Revision: 0
# Processed by: cddbd v1.4PL0 Copyright (c) Steve Scherf et al.
# Submitted via: CDex 1.50
#
DISCID=5509a707
DTITLE=Misja Fitzgerald Michel - On The Edge
DYEAR=2001
DGENRE=Jazz
TTITLE0=Beloved
TTITLE1=Swinging Heart
TTITLE2=Just A Thought
TTITLE3=Ornettish
TTITLE4=Don't Explain
TTITLE5=Embodied
TTITLE6=Countdown
EXTD=YEAR: 2001
EXTT0=
EXTT1=
EXTT2=
EXTT3=
EXTT4=
EXTT5=
EXTT6=
PLAYORDER=
